<svg width="600" height="400" viewBox="0 0 600 400" xmlns="http://www.w3.org/2000/svg">
  <defs>
    <linearGradient id="teamGradient" x1="0%" y1="0%" x2="100%" y2="100%">
      <stop offset="0%" style="stop-color:#f8fafc;stop-opacity:1" />
      <stop offset="100%" style="stop-color:#e2e8f0;stop-opacity:1" />
    </linearGradient>
  </defs>
  
  <!-- Background -->
  <rect width="600" height="400" fill="url(#teamGradient)"/>
  
  <!-- Pharmacy Counter -->
  <rect x="50" y="300" width="500" height="80" rx="10" fill="#3b82f6" opacity="0.8"/>
  
  <!-- Pharmacist 1 -->
  <g transform="translate(150, 180)">
    <!-- Head -->
    <circle cx="0" cy="0" r="25" fill="#fbbf24"/>
    <!-- Body -->
    <rect x="-20" y="20" width="40" height="60" rx="20" fill="white"/>
    <!-- Lab Coat -->
    <rect x="-18" y="22" width="36" height="56" rx="18" fill="#3b82f6" opacity="0.2"/>
  </g>
  
  <!-- Pharmacist 2 -->
  <g transform="translate(300, 180)">
    <!-- Head -->
    <circle cx="0" cy="0" r="25" fill="#f59e0b"/>
    <!-- Body -->
    <rect x="-20" y="20" width="40" height="60" rx="20" fill="white"/>
    <!-- Lab Coat -->
    <rect x="-18" y="22" width="36" height="56" rx="18" fill="#3b82f6" opacity="0.2"/>
  </g>
  
  <!-- Pharmacist 3 -->
  <g transform="translate(450, 180)">
    <!-- Head -->
    <circle cx="0" cy="0" r="25" fill="#ef4444"/>
    <!-- Body -->
    <rect x="-20" y="20" width="40" height="60" rx="20" fill="white"/>
    <!-- Lab Coat -->
    <rect x="-18" y="22" width="36" height="56" rx="18" fill="#3b82f6" opacity="0.2"/>
  </g>
  
  <!-- Medicine Shelves -->
  <rect x="80" y="50" width="440" height="100" rx="5" fill="#1e40af" opacity="0.3"/>
  <rect x="90" y="60" width="60" height="15" rx="2" fill="#3b82f6"/>
  <rect x="160" y="60" width="50" height="15" rx="2" fill="#3b82f6"/>
  <rect x="220" y="60" width="70" height="15" rx="2" fill="#3b82f6"/>
  <rect x="300" y="60" width="45" height="15" rx="2" fill="#3b82f6"/>
  <rect x="355" y="60" width="55" height="15" rx="2" fill="#3b82f6"/>
  <rect x="420" y="60" width="65" height="15" rx="2" fill="#3b82f6"/>
  
  <!-- Second Shelf Row -->
  <rect x="90" y="85" width="55" height="15" rx="2" fill="#3b82f6"/>
  <rect x="155" y="85" width="65" height="15" rx="2" fill="#3b82f6"/>
  <rect x="230" y="85" width="50" height="15" rx="2" fill="#3b82f6"/>
  <rect x="290" y="85" width="60" height="15" rx="2" fill="#3b82f6"/>
  <rect x="360" y="85" width="45" height="15" rx="2" fill="#3b82f6"/>
  <rect x="415" y="85" width="70" height="15" rx="2" fill="#3b82f6"/>
  
  <!-- Third Shelf Row -->
  <rect x="90" y="110" width="70" height="15" rx="2" fill="#3b82f6"/>
  <rect x="170" y="110" width="40" height="15" rx="2" fill="#3b82f6"/>
  <rect x="220" y="110" width="60" height="15" rx="2" fill="#3b82f6"/>
  <rect x="290" y="110" width="55" height="15" rx="2" fill="#3b82f6"/>
  <rect x="355" y="110" width="50" height="15" rx="2" fill="#3b82f6"/>
  <rect x="415" y="110" width="65" height="15" rx="2" fill="#3b82f6"/>
</svg>