<svg width="500" height="400" viewBox="0 0 500 400" xmlns="http://www.w3.org/2000/svg">
  <defs>
    <linearGradient id="qualityGradient" x1="0%" y1="0%" x2="100%" y2="100%">
      <stop offset="0%" style="stop-color:#dbeafe;stop-opacity:1" />
      <stop offset="100%" style="stop-color:#bfdbfe;stop-opacity:1" />
    </linearGradient>
  </defs>
  
  <!-- Background -->
  <rect width="500" height="400" fill="url(#qualityGradient)"/>
  
  <!-- Shield (Quality Symbol) -->
  <g transform="translate(250, 200)">
    <path d="M0,-80 L-40,-40 L-40,20 Q-40,60 0,80 Q40,60 40,20 L40,-40 Z" fill="#3b82f6" opacity="0.9"/>
    <!-- Checkmark -->
    <path d="M-15,0 L-5,10 L15,-10" stroke="white" stroke-width="6" fill="none" stroke-linecap="round" stroke-linejoin="round"/>
  </g>
  
  <!-- Certificate/Document -->
  <g transform="translate(100, 100)">
    <rect x="0" y="0" width="80" height="100" rx="5" fill="white" stroke="#3b82f6" stroke-width="2"/>
    <!-- Lines representing text -->
    <line x1="10" y1="20" x2="70" y2="20" stroke="#3b82f6" stroke-width="2"/>
    <line x1="10" y1="30" x2="60" y2="30" stroke="#3b82f6" stroke-width="1"/>
    <line x1="10" y1="40" x2="65" y2="40" stroke="#3b82f6" stroke-width="1"/>
    <line x1="10" y1="50" x2="55" y2="50" stroke="#3b82f6" stroke-width="1"/>
    <!-- Seal -->
    <circle cx="60" cy="80" r="8" fill="#3b82f6"/>
  </g>
  
  <!-- Laboratory Flask -->
  <g transform="translate(350, 120)">
    <!-- Flask body -->
    <path d="M20,0 L30,0 L30,30 L50,70 L0,70 L20,30 Z" fill="white" stroke="#3b82f6" stroke-width="2"/>
    <!-- Liquid -->
    <path d="M22,35 L48,65 L2,65 L22,35 Z" fill="#3b82f6" opacity="0.6"/>
    <!-- Flask neck -->
    <rect x="20" y="-10" width="10" height="15" fill="white" stroke="#3b82f6" stroke-width="2"/>
  </g>
  
  <!-- Microscope -->
  <g transform="translate(80, 250)">
    <!-- Base -->
    <rect x="0" y="40" width="60" height="10" rx="5" fill="#3b82f6"/>
    <!-- Stand -->
    <rect x="25" y="20" width="10" height="30" fill="#3b82f6"/>
    <!-- Eyepiece -->
    <rect x="20" y="0" width="20" height="25" rx="10" fill="#3b82f6"/>
    <!-- Objective -->
    <circle cx="30" cy="35" r="5" fill="#3b82f6"/>
  </g>
  
  <!-- Pills/Capsules scattered -->
  <ellipse cx="400" cy="80" rx="8" ry="12" fill="#3b82f6" opacity="0.7"/>
  <ellipse cx="420" cy="300" rx="6" ry="10" fill="#3b82f6" opacity="0.6"/>
  <ellipse cx="50" cy="350" rx="7" ry="11" fill="#3b82f6" opacity="0.8"/>
  
  <!-- Quality Stars -->
  <g transform="translate(380, 250)">
    <polygon points="0,-10 3,-3 10,-3 5,1 7,8 0,4 -7,8 -5,1 -10,-3 -3,-3" fill="#fbbf24"/>
  </g>
  <g transform="translate(400, 270)">
    <polygon points="0,-8 2,-2 8,-2 4,1 5,7 0,3 -5,7 -4,1 -8,-2 -2,-2" fill="#fbbf24"/>
  </g>
  <g transform="translate(420, 250)">
    <polygon points="0,-9 2.5,-2.5 9,-2.5 4.5,1 6,7.5 0,3.5 -6,7.5 -4.5,1 -9,-2.5 -2.5,-2.5" fill="#fbbf24"/>
  </g>
</svg>